<?xml version="1.0" standalone="no"?>
<!DOCTYPE svg PUBLIC "-//W3C//DTD SVG 20010904//EN"
 "http://www.w3.org/TR/2001/REC-SVG-20010904/DTD/svg10.dtd">
<svg version="1.0" xmlns="http://www.w3.org/2000/svg"
 width="50.000000pt" height="50.000000pt" viewBox="0 0 50.000000 50.000000"
 preserveAspectRatio="xMidYMid meet">

<g transform="translate(0.000000,50.000000) scale(0.100000,-0.100000)"
fill="#000000" stroke="none">
<path d="M223 460 c-4 -15 -13 -19 -37 -17 -29 2 -31 0 -29 -29 2 -24 -2 -33
-17 -37 -27 -7 -27 -47 0 -54 15 -4 19 -13 17 -37 -2 -29 0 -31 29 -29 24 2
33 -2 37 -17 7 -27 47 -27 54 0 4 15 13 19 37 17 29 -2 31 0 29 29 -2 24 2 33
17 37 27 7 27 47 0 54 -15 4 -19 13 -17 37 2 29 0 31 -29 29 -24 -2 -33 2 -37
17 -3 12 -14 20 -27 20 -13 0 -24 -8 -27 -20z m57 -85 c26 -32 -13 -81 -47
-59 -23 14 -28 41 -13 59 16 19 44 19 60 0z"/>
<path d="M70 199 c-24 -11 -46 -22 -48 -24 -2 -2 7 -29 21 -59 26 -55 38 -64
66 -47 10 6 35 -1 78 -22 75 -37 77 -37 206 46 83 55 104 81 73 93 -15 6 -95
-43 -129 -78 -18 -18 -95 -25 -144 -12 -45 12 -22 20 55 19 70 0 77 2 77 20 0
16 -9 21 -49 27 -32 4 -58 16 -75 32 -33 32 -70 33 -131 5z"/>
<path d="M295 200 l-30 -20 26 0 c15 0 37 9 50 20 23 18 23 19 4 20 -11 0 -33
-9 -50 -20z"/>
<path d="M373 193 c-28 -14 -46 -43 -27 -43 16 0 74 43 68 51 -3 5 -6 9 -7 8
-1 0 -17 -8 -34 -16z"/>
</g>
</svg>
