<?xml version="1.0" standalone="no"?>
<!DOCTYPE svg PUBLIC "-//W3C//DTD SVG 20010904//EN"
 "http://www.w3.org/TR/2001/REC-SVG-20010904/DTD/svg10.dtd">
<svg version="1.0" xmlns="http://www.w3.org/2000/svg"
 width="50.000000pt" height="50.000000pt" viewBox="0 0 50.000000 50.000000"
 preserveAspectRatio="xMidYMid meet">

<g transform="translate(0.000000,50.000000) scale(0.100000,-0.100000)"
fill="#000000" stroke="none">
<path d="M330 445 c-7 -9 -22 -12 -38 -9 -16 3 -35 -1 -46 -9 -19 -14 -19 -15
3 -26 12 -7 30 -11 39 -9 9 2 25 -7 35 -19 33 -41 97 -18 97 34 0 42 -64 70
-90 38z"/>
<path d="M178 334 c-53 -27 -69 -40 -74 -62 -3 -15 -12 -46 -19 -69 l-14 -43
70 0 c38 0 69 3 69 8 0 4 -4 22 -9 40 -9 29 -7 34 15 49 29 18 26 21 48 -40
19 -50 39 -68 58 -49 8 8 6 23 -5 54 -10 24 -17 62 -17 84 0 42 -14 64 -39 64
-9 -1 -46 -17 -83 -36z"/>
<path d="M86 106 c-18 -34 -16 -56 6 -56 18 0 37 33 38 63 0 38 -22 34 -44 -7z"/>
<path d="M155 103 c8 -46 12 -53 30 -53 21 0 27 16 19 55 -5 29 -11 35 -31 35
-24 0 -25 -2 -18 -37z"/>
<path d="M350 110 c0 -5 -9 -10 -20 -10 -25 0 -28 -45 -4 -54 52 -20 96 12 74
54 -11 20 -50 28 -50 10z m30 -30 c0 -21 -33 -29 -45 -10 -3 6 1 10 9 10 9 0
16 5 16 10 0 6 5 10 10 10 6 0 10 -9 10 -20z"/>
</g>
</svg>
