<?xml version="1.0" standalone="no"?>
<!DOCTYPE svg PUBLIC "-//W3C//DTD SVG 20010904//EN"
 "http://www.w3.org/TR/2001/REC-SVG-20010904/DTD/svg10.dtd">
<svg version="1.0" xmlns="http://www.w3.org/2000/svg"
 width="50.000000pt" height="50.000000pt" viewBox="0 0 50.000000 50.000000"
 preserveAspectRatio="xMidYMid meet">

<g transform="translate(0.000000,50.000000) scale(0.100000,-0.100000)"
fill="#000000" stroke="none">
<path d="M120 480 c-11 -11 -20 -29 -20 -40 0 -11 9 -29 20 -40 14 -14 16 -20
6 -20 -7 0 -19 -7 -26 -15 -17 -21 -25 -19 -38 11 -9 18 -19 24 -34 22 -34 -5
-33 -30 3 -88 24 -38 36 -50 50 -47 17 5 19 -5 21 -127 3 -123 4 -131 23 -131
18 0 21 8 25 80 l6 80 4 -80 c5 -72 7 -80 25 -80 18 0 20 8 23 96 l3 96 -91
78 c-49 44 -90 83 -90 88 0 15 18 3 89 -60 38 -35 73 -63 76 -63 4 0 4 12 1
28 -4 18 -3 22 3 12 4 -8 14 -39 21 -68 12 -53 32 -74 52 -54 7 7 5 33 -6 84
-23 101 -35 127 -61 134 -23 6 -23 6 -4 25 25 25 24 54 -1 79 -11 11 -29 20
-40 20 -11 0 -29 -9 -40 -20z"/>
<path d="M444 196 c-10 -26 4 -48 28 -44 17 2 23 10 23 28 0 18 -6 26 -23 28
-13 2 -25 -3 -28 -12z"/>
<path d="M390 155 c0 -8 7 -15 15 -15 8 0 15 7 15 15 0 8 -7 15 -15 15 -8 0
-15 -7 -15 -15z"/>
<path d="M271 147 c-8 -10 -7 -19 3 -33 14 -18 15 -18 35 0 16 15 18 22 10 33
-14 17 -33 17 -48 0z"/>
<path d="M322 99 c-23 -28 -23 -31 -7 -55 24 -37 62 -52 82 -31 15 14 13 17
-21 31 -20 8 -36 20 -36 25 0 14 2 14 36 -4 31 -16 59 -12 87 13 27 24 21 41
-15 39 -18 -1 -49 1 -68 5 -31 6 -38 3 -58 -23z"/>
</g>
</svg>
