<?xml version="1.0" standalone="no"?>
<!DOCTYPE svg PUBLIC "-//W3C//DTD SVG 20010904//EN"
 "http://www.w3.org/TR/2001/REC-SVG-20010904/DTD/svg10.dtd">
<svg version="1.0" xmlns="http://www.w3.org/2000/svg"
 width="50.000000pt" height="50.000000pt" viewBox="0 0 50.000000 50.000000"
 preserveAspectRatio="xMidYMid meet">

<g transform="translate(0.000000,50.000000) scale(0.100000,-0.100000)"
fill="#000000" stroke="none">
<path d="M260 428 c-19 -6 -63 -8 -96 -5 -68 7 -74 2 -74 -68 0 -47 -32 -189
-47 -206 -20 -24 -17 -31 42 -89 l55 -54 42 40 c68 64 147 85 238 63 25 -7 36
78 20 160 -7 38 -10 90 -7 114 6 44 6 45 -25 51 -43 8 -107 6 -148 -6z m145
-16 c6 -4 10 -34 11 -67 0 -33 4 -83 9 -112 4 -28 5 -63 1 -77 -6 -24 -9 -25
-55 -19 -28 3 -64 1 -83 -6 l-33 -12 42 43 c37 38 41 48 39 83 -5 63 -16 84
-53 102 l-34 16 -48 -47 c-52 -51 -61 -55 -61 -27 0 10 -7 21 -15 25 -9 3 -15
18 -15 35 0 51 6 56 63 53 28 -2 70 1 92 6 49 12 126 14 140 4z m-145 -79 c0
-4 -17 -24 -37 -45 -52 -53 -32 -61 22 -8 55 54 74 45 20 -10 -47 -49 -38 -67
10 -20 47 46 58 29 12 -18 -44 -45 -50 -68 -7 -27 16 16 33 25 37 21 4 -4 -34
-48 -85 -99 l-92 -92 -45 45 c-38 37 -43 46 -32 59 8 9 19 45 25 80 14 81 32
103 32 41 l0 -45 62 63 c59 58 78 72 78 55z"/>
</g>
</svg>
