<?xml version="1.0" standalone="no"?>
<!DOCTYPE svg PUBLIC "-//W3C//DTD SVG 20010904//EN"
 "http://www.w3.org/TR/2001/REC-SVG-20010904/DTD/svg10.dtd">
<svg version="1.0" xmlns="http://www.w3.org/2000/svg"
 width="50.000000pt" height="50.000000pt" viewBox="0 0 50.000000 50.000000"
 preserveAspectRatio="xMidYMid meet">

<g transform="translate(0.000000,50.000000) scale(0.100000,-0.100000)"
fill="#000000" stroke="none">
<path d="M310 453 c0 -21 8 -57 18 -81 l17 -44 44 6 c25 3 46 8 49 11 2 2 -3
23 -13 47 -30 76 -55 91 -55 33 0 -19 -4 -35 -10 -35 -5 0 -10 23 -10 50 0 43
-3 50 -20 50 -16 0 -20 -7 -20 -37z"/>
<path d="M180 430 c0 -27 -4 -50 -10 -50 -5 0 -10 18 -10 40 0 37 -2 39 -19
28 -18 -11 -61 -92 -61 -115 0 -14 48 -23 120 -23 72 0 120 9 120 23 0 23 -43
104 -61 115 -17 11 -19 9 -19 -28 0 -22 -4 -40 -10 -40 -5 0 -10 23 -10 50 0
43 -3 50 -20 50 -17 0 -20 -7 -20 -50z"/>
<path d="M367 312 c-31 -3 -40 -8 -48 -30 -5 -15 -16 -39 -24 -54 -25 -43 -19
-56 40 -83 30 -15 60 -35 65 -46 8 -14 22 -19 55 -19 30 0 45 4 45 13 0 23
-31 57 -71 78 -50 25 -57 43 -35 84 25 47 19 61 -27 57z"/>
<path d="M100 287 c0 -4 9 -25 20 -47 32 -63 28 -76 -40 -110 -58 -29 -80 -53
-80 -84 0 -14 25 -16 200 -16 175 0 200 2 200 16 0 31 -22 55 -80 84 -68 34
-72 47 -40 110 11 22 20 43 20 47 0 4 -45 8 -100 8 -55 0 -100 -4 -100 -8z"/>
</g>
</svg>
