<?xml version="1.0" standalone="no"?>
<!DOCTYPE svg PUBLIC "-//W3C//DTD SVG 20010904//EN"
 "http://www.w3.org/TR/2001/REC-SVG-20010904/DTD/svg10.dtd">
<svg version="1.0" xmlns="http://www.w3.org/2000/svg"
 width="51.000000pt" height="51.000000pt" viewBox="0 0 51.000000 51.000000"
 preserveAspectRatio="xMidYMid meet">

<g transform="translate(0.000000,51.000000) scale(0.100000,-0.100000)"
fill="#000000" stroke="none">
<path d="M151 466 c-20 -23 -10 -60 17 -64 30 -4 59 17 40 29 -9 6 -6 9 9 9
23 0 39 15 26 23 -5 3 -24 8 -44 12 -26 5 -39 2 -48 -9z"/>
<path d="M107 360 c-9 -14 -19 -52 -23 -85 -5 -44 -12 -65 -28 -78 -20 -16
-19 -16 23 -2 24 8 45 15 47 15 2 0 5 -39 6 -87 3 -74 6 -88 21 -91 15 -3 17
7 19 85 l2 88 5 -85 c6 -85 6 -85 35 -88 16 -2 34 2 40 8 8 8 7 10 -6 5 -13
-5 -16 0 -15 27 2 26 7 34 24 36 17 3 23 -3 26 -25 3 -15 4 1 3 37 -1 63 -2
65 -28 68 -16 2 -28 9 -28 15 0 19 -58 40 -91 33 -33 -6 -34 -2 -18 74 13 63
8 83 -14 50z m76 -137 c-7 -2 -21 -2 -30 0 -10 3 -4 5 12 5 17 0 24 -2 18 -5z
m97 -63 c0 -15 -7 -20 -25 -20 -18 0 -25 5 -25 20 0 15 7 20 25 20 18 0 25 -5
25 -20z"/>
<path d="M160 356 c0 -29 19 -44 31 -25 16 25 10 49 -11 49 -15 0 -20 -7 -20
-24z"/>
<path d="M225 363 c4 -10 10 -51 13 -90 4 -59 8 -73 21 -73 14 0 16 10 10 74
-5 71 -19 106 -41 106 -6 0 -7 -8 -3 -17z"/>
<path d="M315 300 l-29 -30 53 0 c44 0 55 4 76 28 l23 27 29 -25 28 -25 -24
28 c-21 23 -32 27 -76 27 -44 0 -55 -4 -80 -30z"/>
<path d="M5 170 c-3 -6 1 -7 9 -4 18 7 21 14 7 14 -6 0 -13 -4 -16 -10z"/>
</g>
</svg>
